<mxfile host="65bd71144e">
    <diagram id="MAHr5kk7nUPrVwBGJ5mV" name="Page-1">
        <mxGraphModel dx="703" dy="387" grid="1" gridSize="10" guides="1" tooltips="1" connect="1" arrows="1" fold="1" page="1" pageScale="1" pageWidth="827" pageHeight="1169" background="none" math="0" shadow="0">
            <root>
                <mxCell id="0"/>
                <mxCell id="1" parent="0"/>
                <mxCell id="91" style="edgeStyle=none;html=1;entryX=0;entryY=0;entryDx=0;entryDy=0;exitX=1.004;exitY=0.994;exitDx=0;exitDy=0;exitPerimeter=0;" parent="1" source="30" target="31" edge="1">
                    <mxGeometry relative="1" as="geometry"/>
                </mxCell>
                <mxCell id="14" value="Grid" style="swimlane;fontStyle=1;align=center;verticalAlign=top;childLayout=stackLayout;horizontal=1;startSize=26;horizontalStack=0;resizeParent=1;resizeParentMax=0;resizeLast=0;collapsible=1;marginBottom=0;whiteSpace=wrap;html=1;" parent="1" vertex="1">
                    <mxGeometry x="242" y="970" width="340" height="420" as="geometry"/>
                </mxCell>
                <mxCell id="15" value="- currentGrid: Coordinate[][]" style="text;strokeColor=none;fillColor=none;align=left;verticalAlign=top;spacingLeft=4;spacingRight=4;overflow=hidden;rotatable=0;points=[[0,0.5],[1,0.5]];portConstraint=eastwest;whiteSpace=wrap;html=1;" parent="14" vertex="1">
                    <mxGeometry y="26" width="340" height="26" as="geometry"/>
                </mxCell>
                <mxCell id="16" value="+ getBoardSize(): short" style="text;strokeColor=none;fillColor=none;align=left;verticalAlign=top;spacingLeft=4;spacingRight=4;overflow=hidden;rotatable=0;points=[[0,0.5],[1,0.5]];portConstraint=eastwest;whiteSpace=wrap;html=1;" parent="14" vertex="1">
                    <mxGeometry y="52" width="340" height="26" as="geometry"/>
                </mxCell>
                <mxCell id="17" value="- createInitialBoard(): void" style="text;strokeColor=none;fillColor=none;align=left;verticalAlign=top;spacingLeft=4;spacingRight=4;overflow=hidden;rotatable=0;points=[[0,0.5],[1,0.5]];portConstraint=eastwest;whiteSpace=wrap;html=1;" parent="14" vertex="1">
                    <mxGeometry y="78" width="340" height="26" as="geometry"/>
                </mxCell>
                <mxCell id="18" value="- computeFinalGrid(): void" style="text;strokeColor=none;fillColor=none;align=left;verticalAlign=top;spacingLeft=4;spacingRight=4;overflow=hidden;rotatable=0;points=[[0,0.5],[1,0.5]];portConstraint=eastwest;whiteSpace=wrap;html=1;" parent="14" vertex="1">
                    <mxGeometry y="104" width="340" height="26" as="geometry"/>
                </mxCell>
                <mxCell id="19" value="+ flagCell(int x, int y): void" style="text;strokeColor=none;fillColor=none;align=left;verticalAlign=top;spacingLeft=4;spacingRight=4;overflow=hidden;rotatable=0;points=[[0,0.5],[1,0.5]];portConstraint=eastwest;whiteSpace=wrap;html=1;" parent="14" vertex="1">
                    <mxGeometry y="130" width="340" height="26" as="geometry"/>
                </mxCell>
                <mxCell id="20" value="+ revealCell(int x, int y): void" style="text;strokeColor=none;fillColor=none;align=left;verticalAlign=top;spacingLeft=4;spacingRight=4;overflow=hidden;rotatable=0;points=[[0,0.5],[1,0.5]];portConstraint=eastwest;whiteSpace=wrap;html=1;" parent="14" vertex="1">
                    <mxGeometry y="156" width="340" height="26" as="geometry"/>
                </mxCell>
                <mxCell id="22" value="- propagateReveal(int x, int y): void" style="text;strokeColor=none;fillColor=none;align=left;verticalAlign=top;spacingLeft=4;spacingRight=4;overflow=hidden;rotatable=0;points=[[0,0.5],[1,0.5]];portConstraint=eastwest;whiteSpace=wrap;html=1;" parent="14" vertex="1">
                    <mxGeometry y="182" width="340" height="26" as="geometry"/>
                </mxCell>
                <mxCell id="23" value="+ convertGridToProtocol(boolean forceReveal): String" style="text;strokeColor=none;fillColor=none;align=left;verticalAlign=top;spacingLeft=4;spacingRight=4;overflow=hidden;rotatable=0;points=[[0,0.5],[1,0.5]];portConstraint=eastwest;whiteSpace=wrap;html=1;" parent="14" vertex="1">
                    <mxGeometry y="208" width="340" height="26" as="geometry"/>
                </mxCell>
                <mxCell id="24" value="+ revealAllCells(): String" style="text;strokeColor=none;fillColor=none;align=left;verticalAlign=top;spacingLeft=4;spacingRight=4;overflow=hidden;rotatable=0;points=[[0,0.5],[1,0.5]];portConstraint=eastwest;whiteSpace=wrap;html=1;" parent="14" vertex="1">
                    <mxGeometry y="234" width="340" height="26" as="geometry"/>
                </mxCell>
                <mxCell id="25" value="- getNumberOfAdjacentMines(int x, int y): int" style="text;strokeColor=none;fillColor=none;align=left;verticalAlign=top;spacingLeft=4;spacingRight=4;overflow=hidden;rotatable=0;points=[[0,0.5],[1,0.5]];portConstraint=eastwest;whiteSpace=wrap;html=1;" parent="14" vertex="1">
                    <mxGeometry y="260" width="340" height="26" as="geometry"/>
                </mxCell>
                <mxCell id="26" value="- placeMines(int xAvoid, int yAvoid): void" style="text;strokeColor=none;fillColor=none;align=left;verticalAlign=top;spacingLeft=4;spacingRight=4;overflow=hidden;rotatable=0;points=[[0,0.5],[1,0.5]];portConstraint=eastwest;whiteSpace=wrap;html=1;" parent="14" vertex="1">
                    <mxGeometry y="286" width="340" height="26" as="geometry"/>
                </mxCell>
                <mxCell id="27" value="+ printBoard(): void" style="text;strokeColor=none;fillColor=none;align=left;verticalAlign=top;spacingLeft=4;spacingRight=4;overflow=hidden;rotatable=0;points=[[0,0.5],[1,0.5]];portConstraint=eastwest;whiteSpace=wrap;html=1;" parent="14" vertex="1">
                    <mxGeometry y="312" width="340" height="26" as="geometry"/>
                </mxCell>
                <mxCell id="28" value="+ isWin(): boolean" style="text;strokeColor=none;fillColor=none;align=left;verticalAlign=top;spacingLeft=4;spacingRight=4;overflow=hidden;rotatable=0;points=[[0,0.5],[1,0.5]];portConstraint=eastwest;whiteSpace=wrap;html=1;" parent="14" vertex="1">
                    <mxGeometry y="338" width="340" height="26" as="geometry"/>
                </mxCell>
                <mxCell id="29" value="+ isLose(): boolean" style="text;strokeColor=none;fillColor=none;align=left;verticalAlign=top;spacingLeft=4;spacingRight=4;overflow=hidden;rotatable=0;points=[[0,0.5],[1,0.5]];portConstraint=eastwest;whiteSpace=wrap;html=1;" parent="14" vertex="1">
                    <mxGeometry y="364" width="340" height="26" as="geometry"/>
                </mxCell>
                <mxCell id="30" value="+ Grid(short gridSize): " style="text;strokeColor=none;fillColor=none;align=left;verticalAlign=top;spacingLeft=4;spacingRight=4;overflow=hidden;rotatable=0;points=[[0,0.5],[1,0.5]];portConstraint=eastwest;whiteSpace=wrap;html=1;" parent="14" vertex="1">
                    <mxGeometry y="390" width="340" height="30" as="geometry"/>
                </mxCell>
                <mxCell id="31" value="Coordinate" style="swimlane;fontStyle=1;align=center;verticalAlign=top;childLayout=stackLayout;horizontal=1;startSize=26;horizontalStack=0;resizeParent=1;resizeParentMax=0;resizeLast=0;collapsible=1;marginBottom=0;whiteSpace=wrap;html=1;" parent="1" vertex="1">
                    <mxGeometry x="735" y="1530" width="190" height="208" as="geometry"/>
                </mxCell>
                <mxCell id="32" value="- value: char" style="text;strokeColor=none;fillColor=none;align=left;verticalAlign=top;spacingLeft=4;spacingRight=4;overflow=hidden;rotatable=0;points=[[0,0.5],[1,0.5]];portConstraint=eastwest;whiteSpace=wrap;html=1;" parent="31" vertex="1">
                    <mxGeometry y="26" width="190" height="26" as="geometry"/>
                </mxCell>
                <mxCell id="33" value="- status: Status" style="text;strokeColor=none;fillColor=none;align=left;verticalAlign=top;spacingLeft=4;spacingRight=4;overflow=hidden;rotatable=0;points=[[0,0.5],[1,0.5]];portConstraint=eastwest;whiteSpace=wrap;html=1;" parent="31" vertex="1">
                    <mxGeometry y="52" width="190" height="26" as="geometry"/>
                </mxCell>
                <mxCell id="34" value="+ setValue(char value): void" style="text;strokeColor=none;fillColor=none;align=left;verticalAlign=top;spacingLeft=4;spacingRight=4;overflow=hidden;rotatable=0;points=[[0,0.5],[1,0.5]];portConstraint=eastwest;whiteSpace=wrap;html=1;" parent="31" vertex="1">
                    <mxGeometry y="78" width="190" height="26" as="geometry"/>
                </mxCell>
                <mxCell id="35" value="+ setStatus(Status status): void" style="text;strokeColor=none;fillColor=none;align=left;verticalAlign=top;spacingLeft=4;spacingRight=4;overflow=hidden;rotatable=0;points=[[0,0.5],[1,0.5]];portConstraint=eastwest;whiteSpace=wrap;html=1;" parent="31" vertex="1">
                    <mxGeometry y="104" width="190" height="26" as="geometry"/>
                </mxCell>
                <mxCell id="36" value="+ getValue(): char" style="text;strokeColor=none;fillColor=none;align=left;verticalAlign=top;spacingLeft=4;spacingRight=4;overflow=hidden;rotatable=0;points=[[0,0.5],[1,0.5]];portConstraint=eastwest;whiteSpace=wrap;html=1;" parent="31" vertex="1">
                    <mxGeometry y="130" width="190" height="26" as="geometry"/>
                </mxCell>
                <mxCell id="37" value="+ getStatus(): Status" style="text;strokeColor=none;fillColor=none;align=left;verticalAlign=top;spacingLeft=4;spacingRight=4;overflow=hidden;rotatable=0;points=[[0,0.5],[1,0.5]];portConstraint=eastwest;whiteSpace=wrap;html=1;" parent="31" vertex="1">
                    <mxGeometry y="156" width="190" height="26" as="geometry"/>
                </mxCell>
                <mxCell id="38" value="+ Coordinate(): " style="text;strokeColor=none;fillColor=none;align=left;verticalAlign=top;spacingLeft=4;spacingRight=4;overflow=hidden;rotatable=0;points=[[0,0.5],[1,0.5]];portConstraint=eastwest;whiteSpace=wrap;html=1;" parent="31" vertex="1">
                    <mxGeometry y="182" width="190" height="26" as="geometry"/>
                </mxCell>
                <mxCell id="41" value="Worker" style="swimlane;fontStyle=1;align=center;verticalAlign=top;childLayout=stackLayout;horizontal=1;startSize=26;horizontalStack=0;resizeParent=1;resizeParentMax=0;resizeLast=0;collapsible=1;marginBottom=0;whiteSpace=wrap;html=1;" parent="1" vertex="1">
                    <mxGeometry x="720" y="110" width="220" height="52" as="geometry"/>
                </mxCell>
                <mxCell id="42" value="- run(): void" style="text;strokeColor=none;fillColor=none;align=left;verticalAlign=top;spacingLeft=4;spacingRight=4;overflow=hidden;rotatable=0;points=[[0,0.5],[1,0.5]];portConstraint=eastwest;whiteSpace=wrap;html=1;" parent="41" vertex="1">
                    <mxGeometry y="26" width="220" height="26" as="geometry"/>
                </mxCell>
                <mxCell id="54" value="MinesweeperClient" style="swimlane;fontStyle=1;align=center;verticalAlign=top;childLayout=stackLayout;horizontal=1;startSize=26;horizontalStack=0;resizeParent=1;resizeParentMax=0;resizeLast=0;collapsible=1;marginBottom=0;whiteSpace=wrap;html=1;" parent="1" vertex="1">
                    <mxGeometry x="960" y="533" width="290" height="116" as="geometry"/>
                </mxCell>
                <mxCell id="55" value="+ main(args: String[]): void" style="text;strokeColor=none;fillColor=none;align=left;verticalAlign=top;spacingLeft=4;whiteSpace=wrap;html=1;" parent="54" vertex="1">
                    <mxGeometry y="26" width="290" height="30" as="geometry"/>
                </mxCell>
                <mxCell id="56" value="- isGameOver(message: String): boolean" style="text;strokeColor=none;fillColor=none;align=left;verticalAlign=top;spacingLeft=4;whiteSpace=wrap;html=1;" parent="54" vertex="1">
                    <mxGeometry y="56" width="290" height="30" as="geometry"/>
                </mxCell>
                <mxCell id="57" value="-  printCommands(): String" style="text;strokeColor=none;fillColor=none;align=left;verticalAlign=top;spacingLeft=4;whiteSpace=wrap;html=1;" parent="54" vertex="1">
                    <mxGeometry y="86" width="290" height="30" as="geometry"/>
                </mxCell>
                <mxCell id="89" style="edgeStyle=none;html=1;exitX=1;exitY=0;exitDx=0;exitDy=0;shape=link;" parent="1" source="58" edge="1">
                    <mxGeometry relative="1" as="geometry">
                        <mxPoint x="720" y="160" as="targetPoint"/>
                    </mxGeometry>
                </mxCell>
                <mxCell id="58" value="MinesweeperServer" style="swimlane;fontStyle=1;align=center;verticalAlign=top;childLayout=stackLayout;horizontal=1;startSize=26;horizontalStack=0;resizeParent=1;resizeParentMax=0;resizeLast=0;collapsible=1;marginBottom=0;whiteSpace=wrap;html=1;" parent="1" vertex="1">
                    <mxGeometry x="190" y="280" width="444" height="626" as="geometry"/>
                </mxCell>
                <mxCell id="59" value="+ main(args: String[]): void" style="text;strokeColor=none;fillColor=none;align=left;verticalAlign=top;spacingLeft=4;whiteSpace=wrap;html=1;" parent="58" vertex="1">
                    <mxGeometry y="26" width="444" height="30" as="geometry"/>
                </mxCell>
                <mxCell id="60" value="- handleClientConnection(ServerSocket): void" style="text;strokeColor=none;fillColor=none;align=left;verticalAlign=top;spacingLeft=4;whiteSpace=wrap;html=1;" parent="58" vertex="1">
                    <mxGeometry y="56" width="444" height="30" as="geometry"/>
                </mxCell>
                <mxCell id="61" value="+ processClientRequests(Socket): void" style="text;strokeColor=none;fillColor=none;align=left;verticalAlign=top;spacingLeft=4;whiteSpace=wrap;html=1;" parent="58" vertex="1">
                    <mxGeometry y="86" width="444" height="30" as="geometry"/>
                </mxCell>
                <mxCell id="98" value="- processCommand(String, Grid, OutputStream, Socket): void" style="text;strokeColor=none;fillColor=none;align=left;verticalAlign=top;spacingLeft=4;whiteSpace=wrap;html=1;" vertex="1" parent="58">
                    <mxGeometry y="116" width="444" height="30" as="geometry"/>
                </mxCell>
                <mxCell id="63" value="- handleQuitCommand(Socket, OutputStream): void" style="text;strokeColor=none;fillColor=none;align=left;verticalAlign=top;spacingLeft=4;whiteSpace=wrap;html=1;" parent="58" vertex="1">
                    <mxGeometry y="146" width="444" height="30" as="geometry"/>
                </mxCell>
                <mxCell id="64" value="- handleCheatCommand(Grid, OutputStream): void" style="text;strokeColor=none;fillColor=none;align=left;verticalAlign=top;spacingLeft=4;whiteSpace=wrap;html=1;" parent="58" vertex="1">
                    <mxGeometry y="176" width="444" height="30" as="geometry"/>
                </mxCell>
                <mxCell id="65" value="- handleFlagCommand(OutputStream, String, Grid): void" style="text;strokeColor=none;fillColor=none;align=left;verticalAlign=top;spacingLeft=4;whiteSpace=wrap;html=1;" parent="58" vertex="1">
                    <mxGeometry y="206" width="444" height="30" as="geometry"/>
                </mxCell>
                <mxCell id="66" value="- handleTryCommand(OutputStream, String, Grid): boolean" style="text;strokeColor=none;fillColor=none;align=left;verticalAlign=top;spacingLeft=4;whiteSpace=wrap;html=1;" parent="58" vertex="1">
                    <mxGeometry y="236" width="444" height="30" as="geometry"/>
                </mxCell>
                <mxCell id="67" value="- handleWrongCommand(Socket, OutputStream): void" style="text;strokeColor=none;fillColor=none;align=left;verticalAlign=top;spacingLeft=4;whiteSpace=wrap;html=1;" parent="58" vertex="1">
                    <mxGeometry y="266" width="444" height="30" as="geometry"/>
                </mxCell>
                <mxCell id="69" value="- printWrongInputMessage(Socket): void" style="text;strokeColor=none;fillColor=none;align=left;verticalAlign=top;spacingLeft=4;whiteSpace=wrap;html=1;" parent="58" vertex="1">
                    <mxGeometry y="296" width="444" height="30" as="geometry"/>
                </mxCell>
                <mxCell id="70" value="- printDisconnectedMessage(Socket): void" style="text;strokeColor=none;fillColor=none;align=left;verticalAlign=top;spacingLeft=4;whiteSpace=wrap;html=1;" parent="58" vertex="1">
                    <mxGeometry y="326" width="444" height="30" as="geometry"/>
                </mxCell>
                <mxCell id="71" value="- isTryCommand(String): boolean" style="text;strokeColor=none;fillColor=none;align=left;verticalAlign=top;spacingLeft=4;whiteSpace=wrap;html=1;" parent="58" vertex="1">
                    <mxGeometry y="356" width="444" height="30" as="geometry"/>
                </mxCell>
                <mxCell id="72" value="- isFlagCommand(String): boolean" style="text;strokeColor=none;fillColor=none;align=left;verticalAlign=top;spacingLeft=4;whiteSpace=wrap;html=1;" parent="58" vertex="1">
                    <mxGeometry y="386" width="444" height="30" as="geometry"/>
                </mxCell>
                <mxCell id="73" value="- areCorrectCoordinates(Grid, String): boolean" style="text;strokeColor=none;fillColor=none;align=left;verticalAlign=top;spacingLeft=4;whiteSpace=wrap;html=1;" parent="58" vertex="1">
                    <mxGeometry y="416" width="444" height="30" as="geometry"/>
                </mxCell>
                <mxCell id="97" value="- areCoordinatesInRange(String): boolean" style="text;strokeColor=none;fillColor=none;align=left;verticalAlign=top;spacingLeft=4;whiteSpace=wrap;html=1;" parent="58" vertex="1">
                    <mxGeometry y="446" width="444" height="30" as="geometry"/>
                </mxCell>
                <mxCell id="75" value="- getXCoordinate(String): int" style="text;strokeColor=none;fillColor=none;align=left;verticalAlign=top;spacingLeft=4;whiteSpace=wrap;html=1;" parent="58" vertex="1">
                    <mxGeometry y="476" width="444" height="30" as="geometry"/>
                </mxCell>
                <mxCell id="74" value="- getYCoordinate(String): int" style="text;strokeColor=none;fillColor=none;align=left;verticalAlign=top;spacingLeft=4;whiteSpace=wrap;html=1;" parent="58" vertex="1">
                    <mxGeometry y="506" width="444" height="30" as="geometry"/>
                </mxCell>
                <mxCell id="77" value="- isNumeric(String): boolean" style="text;strokeColor=none;fillColor=none;align=left;verticalAlign=top;spacingLeft=4;whiteSpace=wrap;html=1;" parent="58" vertex="1">
                    <mxGeometry y="536" width="444" height="30" as="geometry"/>
                </mxCell>
                <mxCell id="76" value="- isQuitCommand(String): boolean" style="text;strokeColor=none;fillColor=none;align=left;verticalAlign=top;spacingLeft=4;whiteSpace=wrap;html=1;" parent="58" vertex="1">
                    <mxGeometry y="566" width="444" height="30" as="geometry"/>
                </mxCell>
                <mxCell id="78" value="- isCheatCommand(String): boolean" style="text;strokeColor=none;fillColor=none;align=left;verticalAlign=top;spacingLeft=4;whiteSpace=wrap;html=1;" parent="58" vertex="1">
                    <mxGeometry y="596" width="444" height="30" as="geometry"/>
                </mxCell>
                <mxCell id="90" style="edgeStyle=none;html=1;exitX=0.5;exitY=1;exitDx=0;exitDy=0;entryX=0.5;entryY=0;entryDx=0;entryDy=0;" parent="1" source="78" target="14" edge="1">
                    <mxGeometry relative="1" as="geometry">
                        <mxPoint x="320" y="930" as="targetPoint"/>
                    </mxGeometry>
                </mxCell>
                <mxCell id="92" style="html=1;exitX=1;exitY=0.5;exitDx=0;exitDy=0;entryX=0;entryY=0.5;entryDx=0;entryDy=0;strokeColor=default;shape=link;" parent="1" source="69" target="54" edge="1">
                    <mxGeometry relative="1" as="geometry"/>
                </mxCell>
                <mxCell id="95" value="Network Connection" style="edgeLabel;html=1;align=center;verticalAlign=middle;resizable=0;points=[];" parent="92" vertex="1" connectable="0">
                    <mxGeometry x="0.1226" relative="1" as="geometry">
                        <mxPoint x="-17" as="offset"/>
                    </mxGeometry>
                </mxCell>
            </root>
        </mxGraphModel>
    </diagram>
</mxfile>